<svg id="my-svg" width="715px" height="150px" viewBox="0 0 715 150" version="1.1" xmlns="http://www.w3.org/2000/svg" xmlns:xlink="http://www.w3.org/1999/xlink">
            <path d="M80.4132151,80.4417127 C80.4132151,69.5410722 73.3041017,59.1143725 60.744668,57.8110351 C59.7967863,57.6925498 59.3228454,57.5740646 59.3228454,57.5740646 C59.3228454,57.4555794 59.7967863,57.3370942 60.744668,57.1001237 C69.0386337,55.3228454 74.8444096,46.7919093 74.8444096,38.2609732 C74.8444096,29.0191258 68.0907519,19.5403079 50.0809979,18.3554557 C48.4222048,18.2369704 46.0525003,18.1184852 43.5643107,18.1184852 C34.3224632,18.1184852 22.7109113,18.2369704 22.3554557,31.3888302 C22.1184852,38.9718845 22,55.0858749 22,69.4225869 C22,78.9014048 22,87.7877966 22.2369704,92.7641759 C22.8293966,105.56058 35.1518598,105.797551 43.4458254,105.797551 C47.1188674,105.797551 51.3843354,105.679065 53.3985842,105.56058 C72.1192495,104.257243 80.4132151,92.1717498 80.4132151,80.4417127 L80.4132151,80.4417127 Z M67.7352962,38.9718845 C67.7352962,46.4364536 61.3370942,54.3749636 50.0809979,55.0858749 C47.8297787,55.2043601 44.0382515,55.2043601 40.3652096,55.2043601 C29.4645691,55.2043601 29.1091134,55.0858749 29.1091134,52.8346557 C29.2275986,45.7255423 29.1091134,35.6542983 29.3460838,32.6921677 C29.8200247,26.4124509 32.7821553,24.6351725 41.9055175,24.6351725 C45.2231038,24.6351725 48.6591753,24.7536577 49.0146309,24.7536577 C61.9295203,24.7536577 67.7352962,31.7442859 67.7352962,38.9718845 L67.7352962,38.9718845 Z M53.6355546,61.6025622 C66.3134735,62.1949883 72.7116756,70.9628948 72.7116756,79.8492866 C72.7116756,88.9726488 66.0765031,98.2144962 53.0431285,99.0438928 C50.3179684,99.162378 46.8818969,99.3993485 43.6827959,99.3993485 C34.3224632,99.3993485 29.8200247,98.096011 29.2275986,91.3423533 C28.9906282,88.7356784 28.9906282,84.2332399 28.9906282,64.2092371 C28.9906282,61.3655918 29.3460838,61.3655918 42.2609732,61.3655918 C46.2894708,61.3655918 50.4364536,61.3655918 53.6355546,61.6025622 L53.6355546,61.6025622 Z M103.991775,102.242994 C103.873289,96.4372179 103.873289,90.8684124 103.873289,86.0105182 C103.873289,79.2568605 103.873289,73.8065402 103.991775,70.7259244 C104.228745,61.6025622 113.589078,56.2707271 122.001529,56.2707271 C124.371233,56.2707271 125.67457,54.4934488 125.67457,52.8346557 C125.67457,51.1758625 124.489718,49.6355546 122.001529,49.6355546 C120.579706,49.6355546 109.916036,50.346466 104.702686,57.5740646 C104.584201,57.8110351 104.34723,58.0480055 104.228745,58.0480055 C104.228745,58.0480055 104.11026,57.8110351 104.11026,57.4555794 C104.11026,55.7967863 104.228745,54.9673897 104.228745,53.1901113 C104.228745,50.9388921 102.451467,49.8725251 100.674188,49.8725251 C98.89691,49.8725251 97.0011464,51.0573773 97.0011464,52.9531409 L97.0011464,53.0716261 C97.1196316,58.2849759 97.2381168,64.5646928 97.2381168,71.1998653 C97.2381168,81.3895945 97.0011464,92.5272055 96.7641759,102.124509 L96.7641759,102.242994 C96.7641759,104.375728 98.6599395,105.56058 100.555703,105.56058 C102.332981,105.56058 103.991775,104.494213 103.991775,102.361479 L103.991775,102.242994 Z M159.442859,112.314238 C166.670458,95.0153952 177.452613,69.6595574 183.258389,55.4413306 C183.495359,54.8489045 183.613845,54.3749636 183.613845,53.9010227 C183.613845,51.7682887 181.718081,50.4649512 179.703832,50.4649512 C178.28201,50.4649512 176.741702,51.1758625 176.149276,53.0716261 C176.03079,53.545567 160.627711,96.6741883 158.613463,96.6741883 C158.258007,96.6741883 157.902551,96.0817622 157.42861,95.0153952 C153.992539,87.1953704 143.684324,60.6546804 140.722194,52.7161704 C140.129768,51.0573773 138.82643,50.346466 137.404608,50.346466 C135.627329,50.346466 133.850051,51.6498034 133.850051,53.6640522 C133.850051,54.1379931 133.850051,54.611934 134.087021,55.2043601 C137.049152,63.2613553 150.437982,95.0153952 154.111024,104.138757 C154.46648,104.968154 154.70345,105.679065 154.70345,106.389977 C154.70345,106.863918 154.584965,107.337858 154.347995,107.930285 C148.068278,122.503967 143.921295,129.020654 134.323992,129.020654 C131.598832,129.020654 130.295494,130.797933 130.295494,132.456726 C130.295494,134.234004 131.598832,136.011282 134.087021,136.011282 C147.120396,136.011282 153.281627,127.243376 159.442859,112.314238 L159.442859,112.314238 Z M232.666727,96.0817622 C232.903698,96.0817622 232.903698,96.2002474 233.022183,96.5557031 C234.680976,103.07239 240.605237,104.731184 241.316148,104.731184 C243.448882,104.731184 244.870705,102.716935 244.870705,101.058142 C244.870705,100.11026 244.515249,99.162378 243.567368,98.6884371 C238.827959,96.2002474 236.932195,93.830543 236.932195,83.9962694 C236.932195,80.086257 237.169166,74.754422 237.524621,70.8444096 C237.643107,69.6595574 237.643107,68.5931904 237.643107,67.5268234 C237.643107,54.2564784 230.178537,49.3985842 219.159412,49.3985842 C208.969682,49.3985842 199.016924,54.4934488 199.016924,58.9958873 C199.016924,60.8916509 200.557232,62.1949883 202.33451,62.1949883 C203.163907,62.1949883 204.111788,61.8395326 204.8227,61.0101361 C207.54786,58.0480055 212.287269,55.3228454 218.685471,55.3228454 C228.282774,55.3228454 231.007934,60.41771 231.007934,66.9343973 C231.007934,67.5268234 230.889449,68.2377347 230.889449,68.8301608 C230.889449,69.6595574 230.415508,70.0150131 228.993685,70.2519835 C224.017306,71.0813801 214.420003,72.8586584 207.073919,75.1098777 C198.306012,77.8350378 194.396,83.8777842 194.396,89.8020454 C194.396,97.9775258 201.623599,106.153006 213.590606,106.153006 C220.818205,106.153006 228.756715,102.479964 232.311271,96.4372179 C232.429757,96.2002474 232.666727,96.0817622 232.666727,96.0817622 L232.666727,96.0817622 Z M213.472121,99.8732893 C205.533611,99.8732893 200.794202,94.89691 200.794202,89.9205306 C200.794202,81.6265649 210.628476,79.2568605 229.230656,76.2947299 L229.586111,76.2947299 C230.415508,76.2947299 230.770964,76.6501856 230.770964,77.5980674 C230.770964,79.01989 230.652478,80.3232275 230.652478,81.6265649 C230.652478,91.6978089 224.372762,99.8732893 213.472121,99.8732893 L213.472121,99.8732893 Z M298.426026,102.361479 C298.426026,104.494213 300.203304,105.679065 301.980583,105.679065 C303.757861,105.679065 305.416654,104.612698 305.416654,102.242994 C305.53514,99.0438928 305.53514,94.1859986 305.53514,89.2096192 C305.53514,81.0341388 305.416654,72.2662323 305.298169,68.4747052 C304.824228,55.9152715 295.34541,49.5170694 285.511137,49.5170694 C278.994449,49.5170694 272.240792,52.3607148 267.975324,58.0480055 C267.856838,58.2849759 267.619868,58.4034612 267.501383,58.4034612 C267.501383,58.4034612 267.382898,58.2849759 267.382898,57.9295203 L267.382898,53.4270818 C267.382898,51.1758625 265.724104,50.2279808 264.065311,50.2279808 C262.169548,50.2279808 260.273784,51.412833 260.273784,53.3085966 L260.273784,53.4270818 C260.392269,58.6404316 260.510755,64.8016632 260.510755,71.4368357 C260.510755,81.5080797 260.273784,92.5272055 260.036814,102.124509 L260.036814,102.242994 C260.036814,104.375728 261.932577,105.56058 263.709856,105.56058 C265.487134,105.56058 267.145927,104.494213 267.145927,102.361479 L267.145927,102.242994 C267.027442,97.9775258 267.027442,94.0675134 267.027442,90.2759863 C267.027442,82.1005058 267.145927,75.5838186 267.264412,71.9107766 C267.501383,62.4319588 276.861715,56.0337567 285.155681,56.0337567 C291.790854,56.0337567 297.8336,60.0622543 298.426026,69.6595574 C298.544511,71.555321 298.662997,75.7023038 298.662997,80.5601979 C298.662997,88.024767 298.544511,97.2666144 298.426026,102.242994 L298.426026,102.361479 Z M336.341298,23.4503203 C336.341298,18.9478818 332.3128,18 330.535522,18 C328.165817,18 324.848231,19.7772784 324.848231,23.4503203 C324.848231,24.1612316 324.848231,29.2560962 330.417036,29.2560962 C333.379167,29.2560962 336.341298,27.1233622 336.341298,23.4503203 L336.341298,23.4503203 Z M334.327049,101.769053 C334.208564,95.1338804 334.090078,86.3659739 334.090078,77.953523 C334.090078,67.7637938 334.208564,58.0480055 334.327049,53.0716261 L334.327049,52.9531409 C334.327049,50.8204069 332.431285,49.7540399 330.654007,49.7540399 C328.758243,49.7540399 326.86248,50.9388921 326.86248,53.0716261 L326.86248,53.1901113 C326.980965,56.5076976 326.980965,61.3655918 326.980965,66.9343973 C326.980965,77.953523 326.86248,91.8162942 326.86248,101.887538 C326.86248,104.257243 328.758243,105.442095 330.535522,105.442095 C332.431285,105.442095 334.327049,104.257243 334.327049,101.887538 L334.327049,101.769053 Z M426.390067,102.242994 C426.390067,104.494213 428.167346,105.797551 429.944624,105.797551 C431.603417,105.797551 433.380696,104.494213 433.380696,101.887538 L433.380696,96.5557031 C433.380696,87.3138557 433.26221,72.2662323 433.143725,67.2898529 C432.788269,55.678301 424.375819,49.5170694 415.252456,49.5170694 C408.380313,49.5170694 401.2712,52.9531409 396.768762,59.9437691 C394.399057,52.8346557 387.763885,49.5170694 380.891742,49.5170694 C374.848995,49.5170694 368.450793,52.1237443 364.659266,56.9816385 C364.540781,57.2186089 364.422296,57.3370942 364.30381,57.3370942 C364.185325,57.3370942 364.185325,57.1001237 364.185325,56.6261828 L364.185325,53.4270818 C364.185325,51.1758625 362.526532,50.1094955 360.867739,50.1094955 C359.09046,50.1094955 357.431667,51.1758625 357.431667,53.3085966 L357.431667,53.4270818 C357.550153,57.8110351 357.550153,63.3798405 357.550153,69.1856165 C357.550153,80.2047423 357.431667,92.6456907 357.194697,102.006023 L357.194697,102.124509 C357.194697,104.494213 358.971975,105.797551 360.749254,105.797551 C362.408047,105.797551 364.06684,104.612698 364.06684,102.242994 L364.06684,102.124509 C363.948355,96.7926735 363.829869,87.9062818 363.829869,80.6786832 C363.829869,76.1762447 363.829869,72.2662323 363.948355,70.2519835 C364.30381,61.484077 372.479291,55.4413306 379.94386,55.4413306 C385.749636,55.4413306 391.199956,59.2328577 391.673897,68.4747052 C391.792382,70.488954 391.792382,75.3468481 391.792382,80.9156536 C391.792382,88.4987079 391.792382,97.3850997 391.673897,102.124509 L391.673897,102.242994 C391.673897,104.494213 393.33269,105.56058 394.991483,105.56058 C396.768762,105.56058 398.54604,104.375728 398.54604,102.242994 L398.54604,102.124509 C398.427555,95.963277 398.309069,87.0768852 398.309069,79.8492866 C398.309069,75.4653333 398.309069,71.6738062 398.427555,69.6595574 C398.78301,61.6025622 407.076976,55.7967863 414.66003,55.7967863 C420.465806,55.7967863 425.916126,59.351343 426.390067,68.4747052 C426.508553,70.488954 426.508553,75.3468481 426.508553,80.9156536 C426.508553,88.4987079 426.508553,97.3850997 426.390067,102.124509 L426.390067,102.242994 Z M488.476324,96.0817622 C488.713295,96.0817622 488.713295,96.2002474 488.83178,96.5557031 C490.490573,103.07239 496.414834,104.731184 497.125746,104.731184 C499.25848,104.731184 500.680302,102.716935 500.680302,101.058142 C500.680302,100.11026 500.324847,99.162378 499.376965,98.6884371 C494.637556,96.2002474 492.741792,93.830543 492.741792,83.9962694 C492.741792,80.086257 492.978763,74.754422 493.334219,70.8444096 C493.452704,69.6595574 493.452704,68.5931904 493.452704,67.5268234 C493.452704,54.2564784 485.988135,49.3985842 474.969009,49.3985842 C464.77928,49.3985842 454.826521,54.4934488 454.826521,58.9958873 C454.826521,60.8916509 456.366829,62.1949883 458.144107,62.1949883 C458.973504,62.1949883 459.921386,61.8395326 460.632297,61.0101361 C463.357457,58.0480055 468.096866,55.3228454 474.495068,55.3228454 C484.092371,55.3228454 486.817531,60.41771 486.817531,66.9343973 C486.817531,67.5268234 486.699046,68.2377347 486.699046,68.8301608 C486.699046,69.6595574 486.225105,70.0150131 484.803282,70.2519835 C479.826903,71.0813801 470.2296,72.8586584 462.883516,75.1098777 C454.11561,77.8350378 450.205597,83.8777842 450.205597,89.8020454 C450.205597,97.9775258 457.433196,106.153006 469.400203,106.153006 C476.627802,106.153006 484.566312,102.479964 488.120869,96.4372179 C488.239354,96.2002474 488.476324,96.0817622 488.476324,96.0817622 L488.476324,96.0817622 Z M469.281718,99.8732893 C461.343208,99.8732893 456.603799,94.89691 456.603799,89.9205306 C456.603799,81.6265649 466.438073,79.2568605 485.040253,76.2947299 L485.395709,76.2947299 C486.225105,76.2947299 486.580561,76.6501856 486.580561,77.5980674 C486.580561,79.01989 486.462076,80.3232275 486.462076,81.6265649 C486.462076,91.6978089 480.182359,99.8732893 469.281718,99.8732893 L469.281718,99.8732893 Z M538.240118,56.8631533 C540.491337,56.8631533 541.557704,55.3228454 541.557704,53.7825375 C541.557704,52.2422296 540.491337,50.7019216 538.240118,50.7019216 L527.694933,50.7019216 C526.154625,50.7019216 525.917655,50.7019216 525.917655,49.3985842 C525.917655,49.3985842 526.154625,39.9197663 526.154625,36.4836948 C526.154625,33.9955052 524.495832,32.8106529 522.718554,32.8106529 C521.059761,32.8106529 519.282482,33.9955052 519.282482,36.2467244 L519.282482,39.208855 C519.282482,43.3558378 519.163997,49.0431285 519.163997,49.5170694 C519.163997,50.5834364 518.927027,50.7019216 517.86066,50.7019216 L510.988517,50.7019216 C508.737298,50.7019216 507.670931,52.2422296 507.670931,53.7825375 C507.670931,55.3228454 508.737298,56.8631533 510.988517,56.8631533 L517.979145,56.8631533 C518.808542,56.8631533 519.163997,57.1001237 519.163997,58.2849759 L519.163997,60.1807395 C519.163997,65.9865155 518.927027,80.4417127 518.927027,88.024767 C518.927027,93.2381168 518.927027,106.153006 534.093135,106.153006 C538.832544,106.153006 541.67619,105.56058 541.67619,102.479964 C541.67619,100.939656 540.609823,99.3993485 538.832544,99.3993485 L538.358603,99.3993485 C537.173751,99.5178337 536.107384,99.6363189 535.041017,99.6363189 C525.79917,99.6363189 525.562199,93.3566021 525.562199,84.1147546 C525.562199,75.3468481 525.917655,63.1428701 525.917655,58.6404316 C525.917655,57.1001237 525.917655,56.8631533 527.813419,56.8631533 L538.240118,56.8631533 Z M567.861424,23.4503203 C567.861424,18.9478818 563.832926,18 562.055648,18 C559.685944,18 556.368357,19.7772784 556.368357,23.4503203 C556.368357,24.1612316 556.368357,29.2560962 561.937163,29.2560962 C564.899293,29.2560962 567.861424,27.1233622 567.861424,23.4503203 L567.861424,23.4503203 Z M565.847175,101.769053 C565.72869,95.1338804 565.610205,86.3659739 565.610205,77.953523 C565.610205,67.7637938 565.72869,58.0480055 565.847175,53.0716261 L565.847175,52.9531409 C565.847175,50.8204069 563.951412,49.7540399 562.174133,49.7540399 C560.27837,49.7540399 558.382606,50.9388921 558.382606,53.0716261 L558.382606,53.1901113 C558.501091,56.5076976 558.501091,61.3655918 558.501091,66.9343973 C558.501091,77.953523 558.382606,91.8162942 558.382606,101.887538 C558.382606,104.257243 560.27837,105.442095 562.055648,105.442095 C563.951412,105.442095 565.847175,104.257243 565.847175,101.887538 L565.847175,101.769053 Z M611.700957,106.153006 C627.459491,106.153006 639.308014,94.7784247 639.308014,77.7165526 C639.308014,61.2471065 627.459491,49.3985842 611.700957,49.3985842 C595.942422,49.3985842 584.33087,61.2471065 584.33087,77.7165526 C584.33087,94.7784247 595.942422,106.153006 611.700957,106.153006 L611.700957,106.153006 Z M611.700957,99.7548041 C600.326375,99.7548041 591.203013,90.9868976 591.203013,77.7165526 C591.203013,64.3277223 600.326375,55.5598158 611.700957,55.5598158 C623.075538,55.5598158 632.317386,64.3277223 632.317386,77.7165526 C632.317386,90.9868976 623.075538,99.7548041 611.700957,99.7548041 L611.700957,99.7548041 Z M695.233039,102.361479 C695.233039,104.494213 697.010318,105.679065 698.787596,105.679065 C700.564874,105.679065 702.223667,104.612698 702.223667,102.242994 C702.342153,99.0438928 702.342153,94.1859986 702.342153,89.2096192 C702.342153,81.0341388 702.223667,72.2662323 702.105182,68.4747052 C701.631241,55.9152715 692.152423,49.5170694 682.31815,49.5170694 C675.801463,49.5170694 669.047805,52.3607148 664.782337,58.0480055 C664.663852,58.2849759 664.426881,58.4034612 664.308396,58.4034612 C664.308396,58.4034612 664.189911,58.2849759 664.189911,57.9295203 L664.189911,53.4270818 C664.189911,51.1758625 662.531118,50.2279808 660.872324,50.2279808 C658.976561,50.2279808 657.080797,51.412833 657.080797,53.3085966 L657.080797,53.4270818 C657.199282,58.6404316 657.317768,64.8016632 657.317768,71.4368357 C657.317768,81.5080797 657.080797,92.5272055 656.843827,102.124509 L656.843827,102.242994 C656.843827,104.375728 658.73959,105.56058 660.516869,105.56058 C662.294147,105.56058 663.95294,104.494213 663.95294,102.361479 L663.95294,102.242994 C663.834455,97.9775258 663.834455,94.0675134 663.834455,90.2759863 C663.834455,82.1005058 663.95294,75.5838186 664.071425,71.9107766 C664.308396,62.4319588 673.668729,56.0337567 681.962694,56.0337567 C688.597867,56.0337567 694.640613,60.0622543 695.233039,69.6595574 C695.351524,71.555321 695.47001,75.7023038 695.47001,80.5601979 C695.47001,88.024767 695.351524,97.2666144 695.233039,102.242994 L695.233039,102.361479 Z" id="Bryanimation-Copy-2" fill="#28B3CD"></path>
            <path d="M74.4132151,78.4417127 C74.4132151,67.5410722 67.3041017,57.1143725 54.744668,55.8110351 C53.7967863,55.6925498 53.3228454,55.5740646 53.3228454,55.5740646 C53.3228454,55.4555794 53.7967863,55.3370942 54.744668,55.1001237 C63.0386337,53.3228454 68.8444096,44.7919093 68.8444096,36.2609732 C68.8444096,27.0191258 62.0907519,17.5403079 44.0809979,16.3554557 C42.4222048,16.2369704 40.0525003,16.1184852 37.5643107,16.1184852 C28.3224632,16.1184852 16.7109113,16.2369704 16.3554557,29.3888302 C16.1184852,36.9718845 16,53.0858749 16,67.4225869 C16,76.9014048 16,85.7877966 16.2369704,90.7641759 C16.8293966,103.56058 29.1518598,103.797551 37.4458254,103.797551 C41.1188674,103.797551 45.3843354,103.679065 47.3985842,103.56058 C66.1192495,102.257243 74.4132151,90.1717498 74.4132151,78.4417127 L74.4132151,78.4417127 Z M61.7352962,36.9718845 C61.7352962,44.4364536 55.3370942,52.3749636 44.0809979,53.0858749 C41.8297787,53.2043601 38.0382515,53.2043601 34.3652096,53.2043601 C23.4645691,53.2043601 23.1091134,53.0858749 23.1091134,50.8346557 C23.2275986,43.7255423 23.1091134,33.6542983 23.3460838,30.6921677 C23.8200247,24.4124509 26.7821553,22.6351725 35.9055175,22.6351725 C39.2231038,22.6351725 42.6591753,22.7536577 43.0146309,22.7536577 C55.9295203,22.7536577 61.7352962,29.7442859 61.7352962,36.9718845 L61.7352962,36.9718845 Z M47.6355546,59.6025622 C60.3134735,60.1949883 66.7116756,68.9628948 66.7116756,77.8492866 C66.7116756,86.9726488 60.0765031,96.2144962 47.0431285,97.0438928 C44.3179684,97.162378 40.8818969,97.3993485 37.6827959,97.3993485 C28.3224632,97.3993485 23.8200247,96.096011 23.2275986,89.3423533 C22.9906282,86.7356784 22.9906282,82.2332399 22.9906282,62.2092371 C22.9906282,59.3655918 23.3460838,59.3655918 36.2609732,59.3655918 C40.2894708,59.3655918 44.4364536,59.3655918 47.6355546,59.6025622 L47.6355546,59.6025622 Z M97.9917746,100.242994 C97.8732893,94.4372179 97.8732893,88.8684124 97.8732893,84.0105182 C97.8732893,77.2568605 97.8732893,71.8065402 97.9917746,68.7259244 C98.228745,59.6025622 107.589078,54.2707271 116.001529,54.2707271 C118.371233,54.2707271 119.67457,52.4934488 119.67457,50.8346557 C119.67457,49.1758625 118.489718,47.6355546 116.001529,47.6355546 C114.579706,47.6355546 103.916036,48.346466 98.7026859,55.5740646 C98.5842007,55.8110351 98.3472302,56.0480055 98.228745,56.0480055 C98.228745,56.0480055 98.1102598,55.8110351 98.1102598,55.4555794 C98.1102598,53.7967863 98.228745,52.9673897 98.228745,51.1901113 C98.228745,48.9388921 96.4514667,47.8725251 94.6741883,47.8725251 C92.89691,47.8725251 91.0011464,49.0573773 91.0011464,50.9531409 L91.0011464,51.0716261 C91.1196316,56.2849759 91.2381168,62.5646928 91.2381168,69.1998653 C91.2381168,79.3895945 91.0011464,90.5272055 90.7641759,100.124509 L90.7641759,100.242994 C90.7641759,102.375728 92.6599395,103.56058 94.5557031,103.56058 C96.3329814,103.56058 97.9917746,102.494213 97.9917746,100.361479 L97.9917746,100.242994 Z M153.442859,110.314238 C160.670458,93.0153952 171.452613,67.6595574 177.258389,53.4413306 C177.495359,52.8489045 177.613845,52.3749636 177.613845,51.9010227 C177.613845,49.7682887 175.718081,48.4649512 173.703832,48.4649512 C172.28201,48.4649512 170.741702,49.1758625 170.149276,51.0716261 C170.03079,51.545567 154.627711,94.6741883 152.613463,94.6741883 C152.258007,94.6741883 151.902551,94.0817622 151.42861,93.0153952 C147.992539,85.1953704 137.684324,58.6546804 134.722194,50.7161704 C134.129768,49.0573773 132.82643,48.346466 131.404608,48.346466 C129.627329,48.346466 127.850051,49.6498034 127.850051,51.6640522 C127.850051,52.1379931 127.850051,52.611934 128.087021,53.2043601 C131.049152,61.2613553 144.437982,93.0153952 148.111024,102.138757 C148.46648,102.968154 148.70345,103.679065 148.70345,104.389977 C148.70345,104.863918 148.584965,105.337858 148.347995,105.930285 C142.068278,120.503967 137.921295,127.020654 128.323992,127.020654 C125.598832,127.020654 124.295494,128.797933 124.295494,130.456726 C124.295494,132.234004 125.598832,134.011282 128.087021,134.011282 C141.120396,134.011282 147.281627,125.243376 153.442859,110.314238 L153.442859,110.314238 Z M226.666727,94.0817622 C226.903698,94.0817622 226.903698,94.2002474 227.022183,94.5557031 C228.680976,101.07239 234.605237,102.731184 235.316148,102.731184 C237.448882,102.731184 238.870705,100.716935 238.870705,99.0581416 C238.870705,98.1102598 238.515249,97.162378 237.567368,96.6884371 C232.827959,94.2002474 230.932195,91.830543 230.932195,81.9962694 C230.932195,78.086257 231.169166,72.754422 231.524621,68.8444096 C231.643107,67.6595574 231.643107,66.5931904 231.643107,65.5268234 C231.643107,52.2564784 224.178537,47.3985842 213.159412,47.3985842 C202.969682,47.3985842 193.016924,52.4934488 193.016924,56.9958873 C193.016924,58.8916509 194.557232,60.1949883 196.33451,60.1949883 C197.163907,60.1949883 198.111788,59.8395326 198.8227,59.0101361 C201.54786,56.0480055 206.287269,53.3228454 212.685471,53.3228454 C222.282774,53.3228454 225.007934,58.41771 225.007934,64.9343973 C225.007934,65.5268234 224.889449,66.2377347 224.889449,66.8301608 C224.889449,67.6595574 224.415508,68.0150131 222.993685,68.2519835 C218.017306,69.0813801 208.420003,70.8586584 201.073919,73.1098777 C192.306012,75.8350378 188.396,81.8777842 188.396,87.8020454 C188.396,95.9775258 195.623599,104.153006 207.590606,104.153006 C214.818205,104.153006 222.756715,100.479964 226.311271,94.4372179 C226.429757,94.2002474 226.666727,94.0817622 226.666727,94.0817622 L226.666727,94.0817622 Z M207.472121,97.8732893 C199.533611,97.8732893 194.794202,92.89691 194.794202,87.9205306 C194.794202,79.6265649 204.628476,77.2568605 223.230656,74.2947299 L223.586111,74.2947299 C224.415508,74.2947299 224.770964,74.6501856 224.770964,75.5980674 C224.770964,77.01989 224.652478,78.3232275 224.652478,79.6265649 C224.652478,89.6978089 218.372762,97.8732893 207.472121,97.8732893 L207.472121,97.8732893 Z M292.426026,100.361479 C292.426026,102.494213 294.203304,103.679065 295.980583,103.679065 C297.757861,103.679065 299.416654,102.612698 299.416654,100.242994 C299.53514,97.0438928 299.53514,92.1859986 299.53514,87.2096192 C299.53514,79.0341388 299.416654,70.2662323 299.298169,66.4747052 C298.824228,53.9152715 289.34541,47.5170694 279.511137,47.5170694 C272.994449,47.5170694 266.240792,50.3607148 261.975324,56.0480055 C261.856838,56.2849759 261.619868,56.4034612 261.501383,56.4034612 C261.501383,56.4034612 261.382898,56.2849759 261.382898,55.9295203 L261.382898,51.4270818 C261.382898,49.1758625 259.724104,48.2279808 258.065311,48.2279808 C256.169548,48.2279808 254.273784,49.412833 254.273784,51.3085966 L254.273784,51.4270818 C254.392269,56.6404316 254.510755,62.8016632 254.510755,69.4368357 C254.510755,79.5080797 254.273784,90.5272055 254.036814,100.124509 L254.036814,100.242994 C254.036814,102.375728 255.932577,103.56058 257.709856,103.56058 C259.487134,103.56058 261.145927,102.494213 261.145927,100.361479 L261.145927,100.242994 C261.027442,95.9775258 261.027442,92.0675134 261.027442,88.2759863 C261.027442,80.1005058 261.145927,73.5838186 261.264412,69.9107766 C261.501383,60.4319588 270.861715,54.0337567 279.155681,54.0337567 C285.790854,54.0337567 291.8336,58.0622543 292.426026,67.6595574 C292.544511,69.555321 292.662997,73.7023038 292.662997,78.5601979 C292.662997,86.024767 292.544511,95.2666144 292.426026,100.242994 L292.426026,100.361479 Z M330.341298,21.4503203 C330.341298,16.9478818 326.3128,16 324.535522,16 C322.165817,16 318.848231,17.7772784 318.848231,21.4503203 C318.848231,22.1612316 318.848231,27.2560962 324.417036,27.2560962 C327.379167,27.2560962 330.341298,25.1233622 330.341298,21.4503203 L330.341298,21.4503203 Z M328.327049,99.7690529 C328.208564,93.1338804 328.090078,84.3659739 328.090078,75.953523 C328.090078,65.7637938 328.208564,56.0480055 328.327049,51.0716261 L328.327049,50.9531409 C328.327049,48.8204069 326.431285,47.7540399 324.654007,47.7540399 C322.758243,47.7540399 320.86248,48.9388921 320.86248,51.0716261 L320.86248,51.1901113 C320.980965,54.5076976 320.980965,59.3655918 320.980965,64.9343973 C320.980965,75.953523 320.86248,89.8162942 320.86248,99.8875381 C320.86248,102.257243 322.758243,103.442095 324.535522,103.442095 C326.431285,103.442095 328.327049,102.257243 328.327049,99.8875381 L328.327049,99.7690529 Z M420.390067,100.242994 C420.390067,102.494213 422.167346,103.797551 423.944624,103.797551 C425.603417,103.797551 427.380696,102.494213 427.380696,99.8875381 L427.380696,94.5557031 C427.380696,85.3138557 427.26221,70.2662323 427.143725,65.2898529 C426.788269,53.678301 418.375819,47.5170694 409.252456,47.5170694 C402.380313,47.5170694 395.2712,50.9531409 390.768762,57.9437691 C388.399057,50.8346557 381.763885,47.5170694 374.891742,47.5170694 C368.848995,47.5170694 362.450793,50.1237443 358.659266,54.9816385 C358.540781,55.2186089 358.422296,55.3370942 358.30381,55.3370942 C358.185325,55.3370942 358.185325,55.1001237 358.185325,54.6261828 L358.185325,51.4270818 C358.185325,49.1758625 356.526532,48.1094955 354.867739,48.1094955 C353.09046,48.1094955 351.431667,49.1758625 351.431667,51.3085966 L351.431667,51.4270818 C351.550153,55.8110351 351.550153,61.3798405 351.550153,67.1856165 C351.550153,78.2047423 351.431667,90.6456907 351.194697,100.006023 L351.194697,100.124509 C351.194697,102.494213 352.971975,103.797551 354.749254,103.797551 C356.408047,103.797551 358.06684,102.612698 358.06684,100.242994 L358.06684,100.124509 C357.948355,94.7926735 357.829869,85.9062818 357.829869,78.6786832 C357.829869,74.1762447 357.829869,70.2662323 357.948355,68.2519835 C358.30381,59.484077 366.479291,53.4413306 373.94386,53.4413306 C379.749636,53.4413306 385.199956,57.2328577 385.673897,66.4747052 C385.792382,68.488954 385.792382,73.3468481 385.792382,78.9156536 C385.792382,86.4987079 385.792382,95.3850997 385.673897,100.124509 L385.673897,100.242994 C385.673897,102.494213 387.33269,103.56058 388.991483,103.56058 C390.768762,103.56058 392.54604,102.375728 392.54604,100.242994 L392.54604,100.124509 C392.427555,93.963277 392.309069,85.0768852 392.309069,77.8492866 C392.309069,73.4653333 392.309069,69.6738062 392.427555,67.6595574 C392.78301,59.6025622 401.076976,53.7967863 408.66003,53.7967863 C414.465806,53.7967863 419.916126,57.351343 420.390067,66.4747052 C420.508553,68.488954 420.508553,73.3468481 420.508553,78.9156536 C420.508553,86.4987079 420.508553,95.3850997 420.390067,100.124509 L420.390067,100.242994 Z M482.476324,94.0817622 C482.713295,94.0817622 482.713295,94.2002474 482.83178,94.5557031 C484.490573,101.07239 490.414834,102.731184 491.125746,102.731184 C493.25848,102.731184 494.680302,100.716935 494.680302,99.0581416 C494.680302,98.1102598 494.324847,97.162378 493.376965,96.6884371 C488.637556,94.2002474 486.741792,91.830543 486.741792,81.9962694 C486.741792,78.086257 486.978763,72.754422 487.334219,68.8444096 C487.452704,67.6595574 487.452704,66.5931904 487.452704,65.5268234 C487.452704,52.2564784 479.988135,47.3985842 468.969009,47.3985842 C458.77928,47.3985842 448.826521,52.4934488 448.826521,56.9958873 C448.826521,58.8916509 450.366829,60.1949883 452.144107,60.1949883 C452.973504,60.1949883 453.921386,59.8395326 454.632297,59.0101361 C457.357457,56.0480055 462.096866,53.3228454 468.495068,53.3228454 C478.092371,53.3228454 480.817531,58.41771 480.817531,64.9343973 C480.817531,65.5268234 480.699046,66.2377347 480.699046,66.8301608 C480.699046,67.6595574 480.225105,68.0150131 478.803282,68.2519835 C473.826903,69.0813801 464.2296,70.8586584 456.883516,73.1098777 C448.11561,75.8350378 444.205597,81.8777842 444.205597,87.8020454 C444.205597,95.9775258 451.433196,104.153006 463.400203,104.153006 C470.627802,104.153006 478.566312,100.479964 482.120869,94.4372179 C482.239354,94.2002474 482.476324,94.0817622 482.476324,94.0817622 L482.476324,94.0817622 Z M463.281718,97.8732893 C455.343208,97.8732893 450.603799,92.89691 450.603799,87.9205306 C450.603799,79.6265649 460.438073,77.2568605 479.040253,74.2947299 L479.395709,74.2947299 C480.225105,74.2947299 480.580561,74.6501856 480.580561,75.5980674 C480.580561,77.01989 480.462076,78.3232275 480.462076,79.6265649 C480.462076,89.6978089 474.182359,97.8732893 463.281718,97.8732893 L463.281718,97.8732893 Z M532.240118,54.8631533 C534.491337,54.8631533 535.557704,53.3228454 535.557704,51.7825375 C535.557704,50.2422296 534.491337,48.7019216 532.240118,48.7019216 L521.694933,48.7019216 C520.154625,48.7019216 519.917655,48.7019216 519.917655,47.3985842 C519.917655,47.3985842 520.154625,37.9197663 520.154625,34.4836948 C520.154625,31.9955052 518.495832,30.8106529 516.718554,30.8106529 C515.059761,30.8106529 513.282482,31.9955052 513.282482,34.2467244 L513.282482,37.208855 C513.282482,41.3558378 513.163997,47.0431285 513.163997,47.5170694 C513.163997,48.5834364 512.927027,48.7019216 511.86066,48.7019216 L504.988517,48.7019216 C502.737298,48.7019216 501.670931,50.2422296 501.670931,51.7825375 C501.670931,53.3228454 502.737298,54.8631533 504.988517,54.8631533 L511.979145,54.8631533 C512.808542,54.8631533 513.163997,55.1001237 513.163997,56.2849759 L513.163997,58.1807395 C513.163997,63.9865155 512.927027,78.4417127 512.927027,86.024767 C512.927027,91.2381168 512.927027,104.153006 528.093135,104.153006 C532.832544,104.153006 535.67619,103.56058 535.67619,100.479964 C535.67619,98.9396564 534.609823,97.3993485 532.832544,97.3993485 L532.358603,97.3993485 C531.173751,97.5178337 530.107384,97.6363189 529.041017,97.6363189 C519.79917,97.6363189 519.562199,91.3566021 519.562199,82.1147546 C519.562199,73.3468481 519.917655,61.1428701 519.917655,56.6404316 C519.917655,55.1001237 519.917655,54.8631533 521.813419,54.8631533 L532.240118,54.8631533 Z M561.861424,21.4503203 C561.861424,16.9478818 557.832926,16 556.055648,16 C553.685944,16 550.368357,17.7772784 550.368357,21.4503203 C550.368357,22.1612316 550.368357,27.2560962 555.937163,27.2560962 C558.899293,27.2560962 561.861424,25.1233622 561.861424,21.4503203 L561.861424,21.4503203 Z M559.847175,99.7690529 C559.72869,93.1338804 559.610205,84.3659739 559.610205,75.953523 C559.610205,65.7637938 559.72869,56.0480055 559.847175,51.0716261 L559.847175,50.9531409 C559.847175,48.8204069 557.951412,47.7540399 556.174133,47.7540399 C554.27837,47.7540399 552.382606,48.9388921 552.382606,51.0716261 L552.382606,51.1901113 C552.501091,54.5076976 552.501091,59.3655918 552.501091,64.9343973 C552.501091,75.953523 552.382606,89.8162942 552.382606,99.8875381 C552.382606,102.257243 554.27837,103.442095 556.055648,103.442095 C557.951412,103.442095 559.847175,102.257243 559.847175,99.8875381 L559.847175,99.7690529 Z M605.700957,104.153006 C621.459491,104.153006 633.308014,92.7784247 633.308014,75.7165526 C633.308014,59.2471065 621.459491,47.3985842 605.700957,47.3985842 C589.942422,47.3985842 578.33087,59.2471065 578.33087,75.7165526 C578.33087,92.7784247 589.942422,104.153006 605.700957,104.153006 L605.700957,104.153006 Z M605.700957,97.7548041 C594.326375,97.7548041 585.203013,88.9868976 585.203013,75.7165526 C585.203013,62.3277223 594.326375,53.5598158 605.700957,53.5598158 C617.075538,53.5598158 626.317386,62.3277223 626.317386,75.7165526 C626.317386,88.9868976 617.075538,97.7548041 605.700957,97.7548041 L605.700957,97.7548041 Z M689.233039,100.361479 C689.233039,102.494213 691.010318,103.679065 692.787596,103.679065 C694.564874,103.679065 696.223667,102.612698 696.223667,100.242994 C696.342153,97.0438928 696.342153,92.1859986 696.342153,87.2096192 C696.342153,79.0341388 696.223667,70.2662323 696.105182,66.4747052 C695.631241,53.9152715 686.152423,47.5170694 676.31815,47.5170694 C669.801463,47.5170694 663.047805,50.3607148 658.782337,56.0480055 C658.663852,56.2849759 658.426881,56.4034612 658.308396,56.4034612 C658.308396,56.4034612 658.189911,56.2849759 658.189911,55.9295203 L658.189911,51.4270818 C658.189911,49.1758625 656.531118,48.2279808 654.872324,48.2279808 C652.976561,48.2279808 651.080797,49.412833 651.080797,51.3085966 L651.080797,51.4270818 C651.199282,56.6404316 651.317768,62.8016632 651.317768,69.4368357 C651.317768,79.5080797 651.080797,90.5272055 650.843827,100.124509 L650.843827,100.242994 C650.843827,102.375728 652.73959,103.56058 654.516869,103.56058 C656.294147,103.56058 657.95294,102.494213 657.95294,100.361479 L657.95294,100.242994 C657.834455,95.9775258 657.834455,92.0675134 657.834455,88.2759863 C657.834455,80.1005058 657.95294,73.5838186 658.071425,69.9107766 C658.308396,60.4319588 667.668729,54.0337567 675.962694,54.0337567 C682.597867,54.0337567 688.640613,58.0622543 689.233039,67.6595574 C689.351524,69.555321 689.47001,73.7023038 689.47001,78.5601979 C689.47001,86.024767 689.351524,95.2666144 689.233039,100.242994 L689.233039,100.361479 Z" id="Bryanimation-Copy" fill="#E02F20" style="mix-blend-mode: darken;"></path>
</svg>
