<?xml version="1.0" encoding="UTF-8" standalone="no"?>
<svg width="120px" height="120px" viewBox="0 0 120 120" version="1.1" xmlns="http://www.w3.org/2000/svg" xmlns:xlink="http://www.w3.org/1999/xlink">
    <!-- Generator: Sketch 3.6.1 (26313) - http://www.bohemiancoding.com/sketch -->
    <title>Logo Icon</title>
    <desc>Created with Sketch.</desc>
    <defs></defs>
    <g id="Page-1" stroke="none" stroke-width="1" fill="none" fill-rule="evenodd">
        <g id="Logo-Icon">
            <path d="M94.4132151,80.4417127 C94.4132151,69.5410722 87.3041017,59.1143725 74.744668,57.8110351 C73.7967863,57.6925498 73.3228454,57.5740646 73.3228454,57.5740646 C73.3228454,57.4555794 73.7967863,57.3370942 74.744668,57.1001237 C83.0386337,55.3228454 88.8444096,46.7919093 88.8444096,38.2609732 C88.8444096,29.0191258 82.0907519,19.5403079 64.0809979,18.3554557 C62.4222048,18.2369704 60.0525003,18.1184852 57.5643107,18.1184852 C48.3224632,18.1184852 36.7109113,18.2369704 36.3554557,31.3888302 C36.1184852,38.9718845 36,55.0858749 36,69.4225869 C36,78.9014048 36,87.7877966 36.2369704,92.7641759 C36.8293966,105.56058 49.1518598,105.797551 57.4458254,105.797551 C61.1188674,105.797551 65.3843354,105.679065 67.3985842,105.56058 C86.1192495,104.257243 94.4132151,92.1717498 94.4132151,80.4417127 L94.4132151,80.4417127 Z M81.7352962,38.9718845 C81.7352962,46.4364536 75.3370942,54.3749636 64.0809979,55.0858749 C61.8297787,55.2043601 58.0382515,55.2043601 54.3652096,55.2043601 C43.4645691,55.2043601 43.1091134,55.0858749 43.1091134,52.8346557 C43.2275986,45.7255423 43.1091134,35.6542983 43.3460838,32.6921677 C43.8200247,26.4124509 46.7821553,24.6351725 55.9055175,24.6351725 C59.2231038,24.6351725 62.6591753,24.7536577 63.0146309,24.7536577 C75.9295203,24.7536577 81.7352962,31.7442859 81.7352962,38.9718845 L81.7352962,38.9718845 Z M67.6355546,61.6025622 C80.3134735,62.1949883 86.7116756,70.9628948 86.7116756,79.8492866 C86.7116756,88.9726488 80.0765031,98.2144962 67.0431285,99.0438928 C64.3179684,99.162378 60.8818969,99.3993485 57.6827959,99.3993485 C48.3224632,99.3993485 43.8200247,98.096011 43.2275986,91.3423533 C42.9906282,88.7356784 42.9906282,84.2332399 42.9906282,64.2092371 C42.9906282,61.3655918 43.3460838,61.3655918 56.2609732,61.3655918 C60.2894708,61.3655918 64.4364536,61.3655918 67.6355546,61.6025622 L67.6355546,61.6025622 Z" id="Bryanimation-Copy-2" fill="#28B3CD"></path>
            <path d="M88.4132151,78.4417127 C88.4132151,67.5410722 81.3041017,57.1143725 68.744668,55.8110351 C67.7967863,55.6925498 67.3228454,55.5740646 67.3228454,55.5740646 C67.3228454,55.4555794 67.7967863,55.3370942 68.744668,55.1001237 C77.0386337,53.3228454 82.8444096,44.7919093 82.8444096,36.2609732 C82.8444096,27.0191258 76.0907519,17.5403079 58.0809979,16.3554557 C56.4222048,16.2369704 54.0525003,16.1184852 51.5643107,16.1184852 C42.3224632,16.1184852 30.7109113,16.2369704 30.3554557,29.3888302 C30.1184852,36.9718845 30,53.0858749 30,67.4225869 C30,76.9014048 30,85.7877966 30.2369704,90.7641759 C30.8293966,103.56058 43.1518598,103.797551 51.4458254,103.797551 C55.1188674,103.797551 59.3843354,103.679065 61.3985842,103.56058 C80.1192495,102.257243 88.4132151,90.1717498 88.4132151,78.4417127 L88.4132151,78.4417127 Z M75.7352962,36.9718845 C75.7352962,44.4364536 69.3370942,52.3749636 58.0809979,53.0858749 C55.8297787,53.2043601 52.0382515,53.2043601 48.3652096,53.2043601 C37.4645691,53.2043601 37.1091134,53.0858749 37.1091134,50.8346557 C37.2275986,43.7255423 37.1091134,33.6542983 37.3460838,30.6921677 C37.8200247,24.4124509 40.7821553,22.6351725 49.9055175,22.6351725 C53.2231038,22.6351725 56.6591753,22.7536577 57.0146309,22.7536577 C69.9295203,22.7536577 75.7352962,29.7442859 75.7352962,36.9718845 L75.7352962,36.9718845 Z M61.6355546,59.6025622 C74.3134735,60.1949883 80.7116756,68.9628948 80.7116756,77.8492866 C80.7116756,86.9726488 74.0765031,96.2144962 61.0431285,97.0438928 C58.3179684,97.162378 54.8818969,97.3993485 51.6827959,97.3993485 C42.3224632,97.3993485 37.8200247,96.096011 37.2275986,89.3423533 C36.9906282,86.7356784 36.9906282,82.2332399 36.9906282,62.2092371 C36.9906282,59.3655918 37.3460838,59.3655918 50.2609732,59.3655918 C54.2894708,59.3655918 58.4364536,59.3655918 61.6355546,59.6025622 L61.6355546,59.6025622 Z" id="Bryanimation-Copy" fill="#E02F20" style="mix-blend-mode: darken;"></path>
        </g>
    </g>
</svg>